<svg xmlns="http://www.w3.org/2000/svg" viewBox="0 0 500 500"><g transform="translate(-87.29545 -379.02503) scale(4.899559)"><path d="M17.817 77.359v102.05h60.73l-5.37-8.52h-46.83v-85h85v85h-24.07l5.59 8.52h27V77.359H17.817Z" class="cls-1" style="fill:#003a70;stroke-width:1"/><path d="M59.727 125.619v33.71h-16.92v-18.97l16.92-14.74Z" class="cls-2" style="fill:#0098ce;stroke-width:1"/><path d="M77.267 119.479c-.005 3.389-2.751 6.135-6.14 6.14h-11.4v15.89h7l25.09 37.9h18.86l-27.42-41.56c14.165-9.283 12.968-30.419-2.154-38.044a22.0152 22.0152 0 0 0-9.986-2.356h-28.3v15.91h28.3c3.385 0 6.134 2.735 6.15 6.12Z" class="cls-1" style="fill:#003a70;stroke-width:1"/></g></svg>