<svg xmlns="http://www.w3.org/2000/svg" width="800" height="800" preserveAspectRatio="xMidYMid" viewBox="0 -35.5 256 256"><path fill="#2396ED" d="M250.72 70.5c-5.77-4-18.98-5.5-29.3-3.5-1.2-10-6.73-18.75-16.34-26.5l-5.53-4-3.84 5.75c-4.8 7.5-7.2 18-6.48 28a33.4 33.4 0 0 0 5.04 15.25c-3.36 2-10.33 4.5-19.46 4.5H1.15l-.48 2C-1 102-1 133.24 18.7 157.24c14.9 18.25 36.99 27.5 66.05 27.5 62.93 0 109.53-30.25 131.39-85 8.64.26 27.14 0 36.5-18.74.25-.5.73-1.5 2.4-5.25l.97-2-5.28-3.25ZM139.99 0h-26.42v25h26.42V0Zm0 30h-26.42v25h26.42V30Zm-31.23 0H82.34v25h26.42V30Zm-31.22 0H51.12v25h26.42V30ZM46.3 60H19.9v25h26.42V60Zm31.23 0H51.12v25h26.42V60Zm31.22 0H82.34v25h26.42V60ZM140 60h-26.42v25h26.42V60Zm31.22 0H144.8v25h26.42V60Z"/></svg>