<svg xmlns="http://www.w3.org/2000/svg" width="800" height="800" preserveAspectRatio="xMidYMid" viewBox="0 -74 256 256"><path fill="#2F2707" d="M152.98 37.21c-5.6 0-9.76 2.75-9.76 9.37 0 4.98 2.75 8.44 9.46 8.44 5.7 0 9.56-3.36 9.56-8.65 0-6-3.46-9.16-9.26-9.16Zm-11.19 46.7c-1.32 1.63-2.64 3.36-2.64 5.4 0 4.06 5.18 5.29 12.3 5.29 5.9 0 13.95-.42 13.95-5.9 0-3.26-3.87-3.47-8.76-3.77l-14.85-1.01Zm30.12-46.39c1.83 2.34 3.76 5.6 3.76 10.28 0 11.29-8.85 17.9-21.67 17.9-3.25 0-6.2-.4-8.03-.91l-3.36 5.39 9.97.6c17.6 1.13 27.97 1.64 27.97 15.16 0 11.7-10.27 18.32-27.97 18.32-18.42 0-25.44-4.68-25.44-12.72 0-4.58 2.04-7.02 5.6-10.38a6.78 6.78 0 0 1-4.48-6.7c0-2.25 1.12-4.28 2.95-6.22 1.84-1.93 3.87-3.86 6.31-6.1-4.98-2.44-8.75-7.73-8.75-15.26 0-11.7 7.73-19.73 23.3-19.73 4.37 0 7.02.4 9.36 1.01h19.84v8.65l-9.36.71ZM199.17 19.03c-5.8 0-9.16-3.36-9.16-9.16 0-5.79 3.36-8.95 9.16-8.95 5.9 0 9.25 3.16 9.25 8.95 0 5.8-3.35 9.16-9.25 9.16Zm-13.13 61.14v-8.03l5.19-.71c1.42-.2 1.63-.51 1.63-2.04V39.48c0-1.12-.3-1.83-1.33-2.13l-5.49-1.94 1.12-8.24h21.06V69.4c0 1.63.1 1.83 1.63 2.04l5.19.7v8.04h-29ZM255.27 76.23c-4.38 2.13-10.79 4.07-16.59 4.07-12.1 0-16.68-4.88-16.68-16.38V37.26c0-.6 0-1.01-.82-1.01h-7.12v-9.06c8.96-1.02 12.52-5.5 13.63-16.58h9.67v14.45c0 .7 0 1.01.81 1.01h14.35v10.18h-15.16v24.3c0 6.01 1.43 8.35 6.92 8.35 2.85 0 5.8-.71 8.24-1.63l2.75 8.96"/><path fill="#DE4C36" d="M104.53 49.53 58 3.02a6.86 6.86 0 0 0-9.7 0l-9.66 9.66L50.9 24.93a8.14 8.14 0 0 1 10.32 10.39l11.81 11.8a8.15 8.15 0 0 1 8.44 13.49 8.16 8.16 0 0 1-13.33-8.88L57.13 40.72V69.7a8.16 8.16 0 1 1-6.71-.24V40.2a8.16 8.16 0 0 1-4.43-10.7L33.9 17.41 2 49.32a6.86 6.86 0 0 0 0 9.7l46.52 46.51a6.86 6.86 0 0 0 9.7 0l46.3-46.3a6.87 6.87 0 0 0 0-9.7"/></svg>