<?xml version="1.0" encoding="utf-8"?>
<svg xmlns="http://www.w3.org/2000/svg" viewBox="0 0 500 500">
  <path fill="#FF0101" d="M 198.798 237.871 C 131.979 199.295 131.979 102.85 198.798 64.272 C 265.616 25.695 349.14 73.916 349.14 151.072 C 349.14 186.88 330.035 219.968 299.027 237.871 L 268.856 185.598 C 295.431 170.247 295.421 131.881 268.839 116.542 C 242.255 101.203 209.034 120.393 209.043 151.085 C 209.046 165.322 216.64 178.476 228.969 185.598 L 198.798 237.871 Z" style="stroke-width: 1;"/>
  <path fill="#0101FF" d="M 413.441 262.126 C 480.259 300.704 480.259 397.149 413.441 435.727 C 346.623 474.305 263.098 426.084 263.098 348.926 C 263.098 313.119 282.202 280.031 313.212 262.126 L 343.384 314.399 C 316.805 329.747 316.805 368.112 343.384 383.457 C 369.963 398.802 403.188 379.62 403.188 348.927 C 403.188 334.685 395.588 321.522 383.254 314.399 L 413.441 262.126 Z" style="stroke-width: 1;"/>
  <path fill="#01FF01" d="M 236.903 348.941 C 236.882 426.098 153.345 474.298 86.537 435.701 C 19.728 397.105 19.753 300.661 86.583 262.101 C 117.586 244.212 155.779 244.216 186.781 262.11 L 156.609 314.383 C 130.03 299.037 96.805 318.221 96.805 348.91 C 96.805 379.603 130.03 398.785 156.609 383.44 C 168.939 376.319 176.539 363.165 176.544 348.924 L 236.886 348.924 L 236.903 348.941 Z" style="stroke-width: 1;"/>
</svg>