<svg xmlns="http://www.w3.org/2000/svg" width="800" height="800" preserveAspectRatio="xMidYMid" viewBox="0 -0.5 256 256"><defs><linearGradient id="a" x1="12.96%" x2="79.64%" y1="12.04%" y2="78.2%"><stop offset="0%" stop-color="#387EB8"/><stop offset="100%" stop-color="#366994"/></linearGradient><linearGradient id="b" x1="19.13%" x2="90.74%" y1="20.58%" y2="88.43%"><stop offset="0%" stop-color="#FFE052"/><stop offset="100%" stop-color="#FFC331"/></linearGradient></defs><path fill="url(#a)" d="M126.92.07C62.08.07 66.13 28.2 66.13 28.2l.07 29.12h61.87v8.75H41.63S.14 61.36.14 126.77c0 65.42 36.21 63.1 36.21 63.1h21.61V159.5s-1.16-36.2 35.64-36.2h61.36s34.47.55 34.47-33.33V33.97S194.67.07 126.92.07ZM92.8 19.66a11.12 11.12 0 1 1 0 22.26 11.12 11.12 0 1 1 0-22.26Z"/><path fill="url(#b)" d="M128.76 254.13c64.83 0 60.78-28.12 60.78-28.12l-.07-29.13H127.6v-8.74h86.44s41.49 4.7 41.49-60.71c0-65.42-36.21-63.1-36.21-63.1H197.7V94.7s1.16 36.2-35.63 36.2H100.7s-34.47-.55-34.47 33.33v56s-5.24 33.9 62.52 33.9Zm34.11-19.59a11.12 11.12 0 1 1 0-22.26 11.12 11.12 0 1 1 0 22.26Z"/></svg>