<svg xmlns="http://www.w3.org/2000/svg" width="800" height="800" preserveAspectRatio="xMidYMid" viewBox="0 -14 256 256"><path fill="#00D8FF" d="M210.48 73.82c-2.65-.91-5.4-1.78-8.24-2.6.47-1.9.9-3.77 1.28-5.61 6.23-30.29 2.16-54.68-11.77-62.71-13.36-7.7-35.2.33-57.26 19.52-2.12 1.85-4.25 3.8-6.37 5.85a155.87 155.87 0 0 0-4.24-3.92C100.76 3.83 77.58-4.82 63.68 3.23 50.32 10.96 46.37 33.9 51.98 62.6c.55 2.77 1.18 5.6 1.9 8.48-3.28.93-6.45 1.92-9.48 2.98C17.31 83.5 0 98.3 0 113.67c0 15.86 18.58 31.78 46.81 41.43 2.23.76 4.54 1.48 6.92 2.16-.77 3.11-1.44 6.16-2 9.14-5.36 28.2-1.18 50.59 12.13 58.26 13.74 7.93 36.8-.22 59.27-19.85 1.78-1.55 3.56-3.2 5.34-4.92 2.32 2.22 4.63 4.33 6.92 6.31 21.76 18.72 43.25 26.28 56.54 18.59 13.73-7.95 18.2-32 12.4-61.27-.44-2.24-.96-4.52-1.53-6.84 1.62-.48 3.2-.98 4.76-1.5 29.35-9.72 48.44-25.43 48.44-41.51 0-15.42-17.87-30.33-45.52-39.85Zm-6.36 70.99c-1.4.46-2.84.9-4.3 1.34a256.51 256.51 0 0 0-12.97-32.43c5.11-11 9.31-21.77 12.46-31.96 2.62.76 5.16 1.56 7.61 2.4 23.7 8.16 38.14 20.22 38.14 29.5 0 9.9-15.6 22.75-40.94 31.15Zm-10.52 20.83c2.57 12.94 2.93 24.64 1.23 33.79-1.52 8.22-4.59 13.7-8.38 15.9-8.07 4.66-25.32-1.4-43.92-17.42-2.14-1.84-4.29-3.8-6.44-5.87a256.93 256.93 0 0 0 21.46-27.25c12.37-1.1 24.06-2.89 34.67-5.34.52 2.1.98 4.17 1.38 6.2ZM87.28 214.51c-7.89 2.79-14.16 2.87-17.96.68-8.07-4.66-11.43-22.64-6.85-46.75.52-2.76 1.15-5.6 1.87-8.5a257.2 257.2 0 0 0 34.5 5 266.23 266.23 0 0 0 21.97 27.14 134.67 134.67 0 0 1-4.88 4.5c-9.93 8.68-19.88 14.84-28.65 17.93Zm-36.93-69.76c-12.48-4.27-22.8-9.81-29.86-15.87-6.35-5.43-9.55-10.83-9.55-15.21 0-9.32 13.9-21.21 37.07-29.3 2.81-.98 5.76-1.9 8.81-2.77 3.2 10.42 7.41 21.32 12.48 32.33a266.44 266.44 0 0 0-12.63 32.8c-2.18-.63-4.3-1.29-6.32-1.98Zm12.38-84.26c-4.81-24.59-1.62-43.14 6.42-47.8 8.57-4.95 27.5 2.12 47.46 19.84 1.28 1.14 2.56 2.32 3.85 3.55a261.98 261.98 0 0 0-21.81 26.99 267.29 267.29 0 0 0-34.16 5.3c-.67-2.68-1.26-5.3-1.76-7.88Zm110.42 27.27a347.8 347.8 0 0 0-7.78-12.8c8.17 1.02 16 2.4 23.34 4.07a233.6 233.6 0 0 1-8.2 22.05c-2.31-4.41-4.77-8.86-7.36-13.32Zm-45.03-43.87a233.78 233.78 0 0 1 15.07 18.19 322.04 322.04 0 0 0-30.26 0 241.25 241.25 0 0 1 15.2-18.19ZM82.8 87.83c-2.53 4.39-4.94 8.8-7.22 13.24a241.43 241.43 0 0 1-8.14-22.15c7.3-1.64 15.1-2.97 23.21-3.99-2.69 4.2-5.31 8.5-7.85 12.9Zm8.08 65.35c-8.38-.93-16.29-2.2-23.59-3.79 2.26-7.3 5.05-14.88 8.3-22.6a323.2 323.2 0 0 0 15.3 26.4Zm37.54 31.03a245.48 245.48 0 0 1-15.4-18.43 347.67 347.67 0 0 0 30.43-.05 232.63 232.63 0 0 1-15.03 18.48Zm52.2-57.81a232 232 0 0 1 8.6 22.52 232.35 232.35 0 0 1-23.88 4.07c2.66-4.21 5.28-8.56 7.86-13.03a347.4 347.4 0 0 0 7.42-13.56Zm-16.9 8.1c-4 6.94-8.1 13.56-12.28 19.81-7.6.54-15.44.82-23.44.82-7.97 0-15.72-.24-23.18-.73a307.41 307.41 0 0 1-23.43-40.47 307.32 307.32 0 0 1 23.3-40.4 307.62 307.62 0 0 1 46.66 0 329.36 329.36 0 0 1 12.34 19.7c4.01 6.94 7.7 13.8 11.03 20.55-3.32 6.85-7 13.79-11 20.72Zm22.56-122.13c8.58 4.95 11.91 24.88 6.52 51.03-.34 1.67-.73 3.37-1.15 5.09a261.97 261.97 0 0 0-34.22-5.4 256.9 256.9 0 0 0-21.65-27.02c1.97-1.89 3.94-3.7 5.9-5.4 18.9-16.44 36.56-22.94 44.6-18.3ZM128 90.81a22.86 22.86 0 1 1 0 45.72 22.86 22.86 0 0 1 0-45.72Z"/></svg>