<svg xmlns="http://www.w3.org/2000/svg" viewBox="0 0 500 500"><path fill="#007ACC" d="M0 250v250h500V0H0v250Z" style="stroke-width:1"/><path fill="#FFF" d="m111 249.9-.14 18.84h59.9v170.22h42.38V268.74h59.9v-18.48c0-10.23-.21-18.77-.52-18.99-.21-.3-36.67-.45-80.86-.36l-80.44.22-.22 18.77Zm269.61-19.33a57.33 57.33 0 0 1 28.77 16.6c4.24 4.53 10.53 12.78 11.03 14.76.15.59-19.86 14.02-32 21.55-.43.29-2.17-1.62-4.15-4.53-5.93-8.63-12.14-12.35-21.63-13-13.95-.95-22.94 6.35-22.87 18.56 0 3.57.52 5.7 1.98 8.63 3.06 6.34 8.77 10.14 26.66 17.88 32.96 14.17 47.05 23.52 55.83 36.83 9.77 14.83 11.97 38.49 5.32 56.09-7.3 19.14-25.43 32.14-50.92 36.46-7.89 1.38-26.6 1.17-35.06-.36-18.5-3.3-36.02-12.4-46.83-24.4-4.24-4.67-12.5-16.88-12-17.76.24-.29 2.13-1.46 4.25-2.7 2.05-1.17 9.8-5.63 17.08-9.87l13.23-7.66 2.79 4.09c3.87 5.93 12.35 14.02 17.46 16.71 14.69 7.75 34.84 6.66 44.76-2.24 4.26-3.89 6-7.91 6-13.81 0-5.34-.64-7.68-3.4-11.69-3.6-5.12-10.9-9.44-31.65-18.4-23.75-10.25-33.98-16.6-43.33-26.69-5.4-5.84-10.51-15.19-12.64-23-1.76-6.5-2.19-22.79-.8-29.37 4.9-22.94 22.22-38.94 47.19-43.69 8.1-1.52 26.97-.95 34.93 1.03v-.02Z" style="stroke-width:1"/></svg>